# Object Export From Tinkercad Server 2015

mtllib obj.mtl

o obj_0
v -10.324 		-24.852 		0
v -10.141 		-26.012 		0
v -10.324 		-27.171 		0
v -11.688 		-22.976 		0
v -10.857 		-23.806 		0
v 8.138 		-27.221 		0
v 7.954 		-26.062 		0
v 8.138 		-24.902 		0
v 8.671 		-23.856 		0
v 9.501 		-23.026 		0
v 10.547 		-29.63 		0
v 11.707 		-29.814 		0
v 14.743 		-28.267 		0
v 13.912 		-29.097 		0
v 12.866 		-29.63 		0
v -15.053 		-29.58 		0
v -13.893 		-29.764 		0
v -10.857 		-28.217 		0
v -11.688 		-29.047 		0
v -12.734 		-29.58 		0
v 9.501 		-29.097 		0
v 8.671 		-28.267 		0
v -16.099 		-29.047 		0
v -16.929 		-28.217 		0
v -17.462 		-27.171 		0
v -17.646 		-26.012 		0
v -17.462 		-24.852 		0
v -16.929 		-23.806 		0
v -16.099 		-22.976 		0
v -21.002 		-19.463 		4
v -21.002 		-19.463 		1.998
v -21.002 		-12.689 		1.998
v -21.002 		-12.689 		4
v -21.002 		-41.694 		1.998
v -21.002 		-33.693 		1.998
v -21.002 		-33.693 		4
v -21.002 		-41.694 		4
v -23.003 		-19.463 		1.998
v -22.5 		-19.463 		4
v -23.003 		-32.465 		1.998
v -22.5 		-32.465 		4
v -22.5 		-43.998 		4
v -26.5 		-43.998 		4
v -26.5 		-43.998 		1.2239
v -24.512 		-43.998 		4
v -26.5 		-7.3809 		0
v -26.5 		-4 		1.4008
v -26.5 		-41.0441 		0
v 20.003 		-41.694 		1.998
v 20.003 		-41.694 		4
v 20.003 		-33.693 		4
v 20.003 		-33.693 		1.998
v 20.003 		-20.69 		1.998
v 20.003 		-20.69 		4
v 20.003 		-12.689 		4
v 20.003 		-12.689 		1.998
v 24.5 		-43.998 		1.2239
v 24.5 		-43.998 		4
v 22.488 		-43.998 		4
v 20.488 		-43.998 		4
v 24.5 		-4 		1.4008
v 24.5 		-7.3809 		0
v 24.5 		-41.0441 		0
v 12.248 		-24.345 		2.003
v 11.165 		-27.678 		4
v 10.677 		-27.429 		4
v 10.289 		-27.042 		4
v 10.04 		-26.553 		4
v 9.954 		-26.012 		4
v 10.04 		-25.47 		4
v 10.289 		-24.981 		4
v -18.002 		-20.69 		1.998
v -18.002 		-20.69 		4
v -18.002 		-32.465 		4
v 10.677 		-24.594 		4
v -18.002 		-32.465 		1.998
v -13.893 		-27.714 		2.003
v -14.435 		-27.628 		2.003
v 12.248 		-27.678 		4
v -14.923 		-27.379 		2.003
v 12.737 		-24.594 		4
v 13.125 		-24.981 		4
v -15.311 		-26.992 		2.003
v 13.374 		-25.47 		4
v 13.459 		-26.012 		4
v -15.56 		-26.503 		2.003
v 13.374 		-26.553 		4
v 13.125 		-27.042 		4
v -15.646 		-25.962 		2.003
v 12.737 		-27.429 		4
v -15.56 		-25.42 		2.003
v 11.165 		-24.345 		4
v 11.707 		-24.259 		4
v -15.311 		-24.931 		2.003
v 12.248 		-24.345 		4
v 10.547 		-29.63 		2.003
v 11.707 		-29.814 		2.003
v 14.743 		-28.267 		2.003
v -12.475 		-24.931 		2.003
v 13.912 		-29.097 		2.003
v 12.866 		-29.63 		2.003
v -12.475 		-26.992 		2.003
v 11.707 		-27.764 		2.003
v -12.863 		-27.379 		2.003
v -15.053 		-29.58 		2.003
v -13.893 		-29.764 		2.003
v -13.352 		-27.628 		2.003
v -10.857 		-28.217 		2.003
v -11.688 		-29.047 		2.003
v -12.734 		-29.58 		2.003
v -12.226 		-25.42 		2.003
v -12.141 		-25.962 		2.003
v 9.501 		-29.097 		2.003
v -12.226 		-26.503 		2.003
v 8.671 		-28.267 		2.003
v -16.099 		-29.047 		2.003
v -14.923 		-24.544 		2.003
v -16.929 		-28.217 		2.003
v -14.435 		-24.295 		2.003
v -17.462 		-27.171 		2.003
v -17.646 		-26.012 		2.003
v -17.462 		-24.852 		2.003
v -13.893 		-24.209 		2.003
v -16.929 		-23.806 		2.003
v -13.352 		-24.295 		2.003
v -16.099 		-22.976 		2.003
v -12.863 		-24.544 		2.003
v -14.435 		-27.628 		4
v -13.893 		-27.714 		4
v -14.923 		-27.379 		4
v -15.311 		-26.992 		4
v -15.56 		-26.503 		4
v -15.646 		-25.962 		4
v -15.56 		-25.42 		4
v -15.311 		-24.931 		4
v -12.475 		-24.931 		4
v -15.053 		-22.443 		0
v -12.475 		-26.992 		4
v -13.893 		-22.259 		0
v -12.734 		-22.443 		0
v -12.863 		-27.379 		4
v -13.352 		-27.628 		4
v 10.547 		-22.493 		0
v 11.707 		-22.309 		0
v -12.226 		-25.42 		4
v -12.141 		-25.962 		4
v 12.866 		-22.493 		0
v -12.226 		-26.503 		4
v -14.923 		-24.544 		4
v 15.276 		-24.902 		0
v -14.435 		-24.295 		4
v 15.459 		-26.062 		0
v -13.893 		-24.209 		4
v 15.276 		-27.221 		0
v -13.352 		-24.295 		4
v -12.863 		-24.544 		4
v 13.912 		-23.026 		0
v 14.743 		-23.856 		0
v -15.053 		-22.443 		2.003
v -13.893 		-22.259 		2.003
v -12.734 		-22.443 		2.003
v 11.165 		-27.678 		2.003
v 10.677 		-27.429 		2.003
v 10.289 		-27.042 		2.003
v 10.04 		-26.553 		2.003
v 9.954 		-26.012 		2.003
v 10.04 		-25.47 		2.003
v 10.289 		-24.981 		2.003
v 10.677 		-24.594 		2.003
v 12.248 		-27.678 		2.003
v 12.737 		-24.594 		2.003
v 13.125 		-24.981 		2.003
v 13.374 		-25.47 		2.003
v 13.459 		-26.012 		2.003
v 13.374 		-26.553 		2.003
v 13.125 		-27.042 		2.003
v 12.737 		-27.429 		2.003
v 11.165 		-24.345 		2.003
v 11.707 		-24.259 		2.003
v -26.5 		-4 		4
v 24.5 		-4 		4
v 22.488 		-43.998 		4.5
v 22.488 		-7 		4
v 22.488 		-7 		4.5
v -22.5 		-19.463 		4.5
v -22.5 		-7 		4
v -22.5 		-7 		4.5
v -22.5 		-43.998 		4.5
v -22.5 		-32.465 		4.5
v -24.512 		-7 		4.5
v -24.512 		-7 		4
v -24.512 		-43.998 		4.5
v -23.003 		-19.463 		4.5
v -23.003 		-32.465 		4.5
v 20.488 		-7 		4.5
v 20.488 		-7 		4
v 20.488 		-43.998 		4.5
v 11.707 		-27.764 		4
v 9.954 		-29.814 		4
v 10.547 		-22.493 		2.003
v 11.707 		-22.309 		2.003
v 12.866 		-22.493 		2.003
v 15.276 		-24.902 		2.003
v 15.459 		-26.062 		2.003
v 15.276 		-27.221 		2.003
v 13.912 		-23.026 		2.003
v 14.743 		-23.856 		2.003
v -10.324 		-24.852 		2.003
v -10.141 		-26.012 		2.003
v -10.324 		-27.171 		2.003
v -11.688 		-22.976 		2.003
v -10.857 		-23.806 		2.003
v 8.138 		-27.221 		2.003
v 7.954 		-26.062 		2.003
v 8.138 		-24.902 		2.003
v 8.671 		-23.856 		2.003
v 9.501 		-23.026 		2.003
# 217 vertices

g group_0_13165757

usemtl color_13165757
s 0

f 10 	217 	9
f 22 	115 	21
f 6 	115 	22
f 25 	120 	24
f 120 	25 	26
f 30 	31 	32
f 30 	32 	33
f 34 	35 	36
f 34 	36 	37
f 30 	39 	31
f 38 	31 	39
f 45 	44 	42
f 40 	31 	38
f 63 	44 	48
f 43 	44 	45
f 49 	50 	51
f 49 	51 	52
f 53 	54 	55
f 53 	55 	56
f 58 	59 	57
f 59 	60 	57
f 44 	57 	60
f 44 	63 	57
f 179 	178 	201
f 52 	51 	35
f 36 	35 	51
f 33 	32 	56
f 33 	56 	55
f 167 	70 	69
f 72 	73 	53
f 71 	70 	167
f 54 	53 	73
f 40 	41 	76
f 74 	76 	41
f 73 	72 	76
f 73 	76 	74
f 77 	78 	129
f 78 	80 	130
f 80 	78 	116
f 77 	105 	78
f 172 	82 	81
f 80 	83 	130
f 82 	172 	84
f 116 	118 	80
f 87 	176 	88
f 88 	176 	90
f 83 	80 	118
f 89 	91 	134
f 89 	86 	121
f 91 	94 	134
f 122 	124 	91
f 97 	12 	96
f 11 	96 	12
f 154 	13 	98
f 98 	13 	100
f 14 	100 	13
f 15 	101 	100
f 15 	100 	14
f 101 	15 	97
f 12 	97 	15
f 99 	127 	211
f 97 	103 	101
f 103 	170 	101
f 100 	101 	170
f 170 	177 	100
f 106 	17 	105
f 16 	105 	17
f 116 	105 	16
f 104 	107 	142
f 3 	18 	108
f 108 	18 	109
f 19 	109 	18
f 129 	142 	77
f 107 	77 	142
f 20 	110 	109
f 20 	109 	19
f 108 	109 	104
f 110 	20 	106
f 17 	106 	20
f 145 	111 	112
f 77 	107 	110
f 110 	106 	77
f 105 	77 	106
f 116 	78 	105
f 109 	110 	107
f 107 	104 	109
f 99 	212 	111
f 96 	11 	113
f 11 	21 	113
f 112 	114 	148
f 115 	113 	21
f 112 	209 	114
f 114 	102 	148
f 164 	163 	115
f 113 	115 	163
f 209 	210 	114
f 16 	23 	116
f 94 	117 	135
f 116 	23 	118
f 24 	118 	23
f 120 	118 	24
f 121 	120 	26
f 94 	126 	117
f 27 	122 	121
f 27 	121 	26
f 126 	159 	117
f 27 	28 	122
f 124 	122 	28
f 123 	125 	155
f 124 	28 	126
f 29 	126 	28
f 125 	127 	155
f 127 	99 	156
f 120 	121 	86
f 121 	122 	89
f 91 	89 	122
f 94 	91 	124
f 126 	94 	124
f 86 	83 	120
f 118 	120 	83
f 127 	125 	161
f 161 	211 	127
f 125 	123 	160
f 129 	78 	128
f 34 	37 	49
f 50 	49 	37
f 128 	78 	130
f 60 	42 	44
f 83 	131 	130
f 86 	132 	131
f 86 	131 	83
f 32 	72 	56
f 89 	133 	86
f 132 	86 	133
f 134 	133 	89
f 52 	34 	49
f 94 	135 	134
f 53 	56 	72
f 52 	35 	34
f 99 	136 	156
f 32 	31 	72
f 31 	40 	72
f 76 	72 	40
f 111 	145 	99
f 136 	99 	145
f 126 	29 	159
f 137 	159 	29
f 102 	138 	148
f 139 	159 	137
f 104 	141 	102
f 138 	102 	141
f 140 	161 	139
f 4 	161 	140
f 141 	104 	142
f 112 	146 	145
f 146 	112 	148
f 117 	149 	135
f 119 	151 	149
f 119 	149 	117
f 123 	153 	119
f 151 	119 	153
f 154 	205 	152
f 155 	153 	123
f 127 	156 	155
f 158 	207 	157
f 150 	203 	158
f 139 	160 	159
f 62 	46 	61
f 161 	160 	139
f 61 	46 	47
f 161 	125 	160
f 123 	119 	160
f 159 	160 	119
f 119 	117 	159
f 162 	163 	66
f 162 	66 	65
f 162 	103 	96
f 67 	66 	164
f 163 	164 	66
f 164 	165 	68
f 164 	68 	67
f 165 	166 	68
f 69 	68 	166
f 115 	213 	164
f 166 	167 	69
f 71 	167 	168
f 168 	169 	75
f 168 	75 	71
f 178 	75 	169
f 170 	103 	79
f 81 	64 	171
f 171 	172 	81
f 201 	202 	64
f 172 	173 	84
f 174 	85 	173
f 84 	173 	85
f 172 	207 	173
f 87 	85 	175
f 174 	175 	85
f 175 	176 	87
f 203 	204 	174
f 176 	177 	90
f 79 	90 	170
f 177 	170 	90
f 177 	176 	98
f 205 	98 	176
f 178 	92 	75
f 168 	217 	169
f 178 	179 	92
f 93 	92 	179
f 178 	169 	200
f 179 	64 	93
f 19 	18 	22
f 3 	2 	7
f 4 	140 	143
f 9 	5 	10
f 9 	8 	1
f 62 	143 	46
f 8 	7 	2
f 14 	63 	15
f 13 	154 	63
f 63 	19 	11
f 12 	63 	11
f 12 	15 	63
f 18 	3 	6
f 19 	63 	20
f 21 	19 	22
f 6 	22 	18
f 21 	11 	19
f 63 	48 	20
f 16 	48 	23
f 23 	48 	24
f 48 	25 	24
f 28 	46 	29
f 16 	17 	48
f 17 	20 	48
f 28 	27 	46
f 48 	46 	26
f 25 	48 	26
f 27 	26 	46
f 14 	13 	63
f 47 	180 	181
f 61 	47 	181
f 58 	57 	63
f 58 	63 	62
f 61 	181 	62
f 58 	62 	181
f 180 	47 	46
f 48 	43 	46
f 44 	43 	48
f 180 	46 	43
f 182 	59 	183
f 182 	183 	184
f 185 	39 	186
f 185 	186 	187
f 188 	42 	41
f 188 	41 	189
f 190 	191 	45
f 190 	45 	192
f 187 	193 	185
f 189 	194 	188
f 192 	188 	194
f 192 	194 	193
f 187 	190 	193
f 192 	193 	190
f 191 	190 	186
f 187 	186 	190
f 193 	38 	39
f 193 	39 	185
f 40 	194 	41
f 189 	41 	194
f 45 	42 	188
f 194 	40 	193
f 38 	193 	40
f 192 	45 	188
f 195 	196 	60
f 195 	60 	197
f 184 	195 	197
f 184 	197 	182
f 184 	183 	196
f 184 	196 	195
f 197 	60 	59
f 197 	59 	182
f 55 	196 	33
f 186 	196 	180
f 36 	74 	41
f 132 	74 	131
f 131 	74 	130
f 133 	74 	132
f 135 	73 	134
f 142 	199 	141
f 138 	141 	199
f 67 	68 	146
f 199 	67 	146
f 148 	138 	199
f 153 	73 	151
f 151 	73 	149
f 136 	145 	71
f 70 	71 	145
f 71 	75 	136
f 67 	199 	66
f 68 	69 	146
f 92 	73 	75
f 93 	73 	92
f 95 	81 	54
f 82 	54 	81
f 54 	73 	93
f 54 	93 	95
f 82 	84 	54
f 85 	54 	84
f 87 	51 	85
f 153 	155 	73
f 148 	199 	146
f 145 	146 	70
f 156 	136 	75
f 155 	156 	75
f 73 	155 	75
f 69 	70 	146
f 90 	51 	88
f 199 	51 	198
f 199 	198 	65
f 65 	66 	199
f 79 	198 	51
f 88 	51 	87
f 54 	85 	51
f 90 	79 	51
f 142 	74 	199
f 128 	74 	129
f 130 	74 	128
f 129 	74 	142
f 133 	134 	73
f 149 	73 	135
f 36 	51 	74
f 51 	199 	74
f 73 	74 	133
f 50 	37 	60
f 42 	60 	37
f 39 	30 	33
f 33 	196 	186
f 39 	33 	186
f 36 	41 	37
f 42 	37 	41
f 43 	191 	180
f 45 	191 	43
f 186 	180 	191
f 59 	58 	183
f 181 	183 	58
f 181 	180 	196
f 54 	196 	55
f 51 	60 	54
f 196 	54 	60
f 50 	60 	51
f 181 	196 	183
f 29 	46 	137
f 139 	46 	140
f 46 	143 	140
f 139 	137 	46
f 10 	4 	143
f 62 	147 	144
f 144 	143 	62
f 150 	158 	62
f 157 	147 	62
f 62 	63 	152
f 150 	62 	152
f 158 	157 	62
f 152 	63 	154
f 4 	10 	5
f 1 	5 	9
f 2 	1 	8
f 7 	6 	3
f 64 	95 	93
f 95 	64 	81
f 217 	10 	200
f 10 	143 	200
f 144 	201 	200
f 144 	200 	143
f 201 	144 	202
f 147 	202 	144
f 202 	206 	171
f 171 	64 	202
f 64 	179 	201
f 200 	201 	178
f 152 	204 	150
f 203 	150 	204
f 205 	204 	152
f 147 	157 	202
f 206 	202 	157
f 207 	206 	157
f 207 	158 	203
f 204 	205 	175
f 176 	175 	205
f 175 	174 	204
f 174 	173 	203
f 203 	173 	207
f 206 	207 	172
f 172 	171 	206
f 5 	1 	208
f 208 	1 	2
f 208 	2 	209
f 209 	2 	210
f 3 	210 	2
f 108 	210 	3
f 161 	4 	211
f 5 	212 	211
f 5 	211 	4
f 5 	208 	212
f 209 	112 	208
f 210 	108 	102
f 104 	102 	108
f 102 	114 	210
f 111 	208 	112
f 211 	212 	99
f 208 	111 	212
f 115 	6 	213
f 6 	7 	213
f 214 	213 	7
f 214 	7 	215
f 8 	215 	7
f 9 	215 	8
f 215 	9 	216
f 217 	216 	9
f 215 	216 	167
f 167 	166 	215
f 214 	215 	166
f 166 	165 	214
f 213 	214 	165
f 165 	164 	213
f 200 	169 	217
f 216 	217 	168
f 168 	167 	216
f 198 	103 	65
f 96 	113 	162
f 97 	96 	103
f 163 	162 	113
f 198 	79 	103
f 98 	100 	177
f 162 	65 	103
f 98 	205 	154
# 438 faces

 #end of obj_0

